inDegrees=no
num_controls=7
num_derivatives=13
num_iterations=83
num_multipliers=7
num_parameters=0
num_slacks=7
num_states=26
objective=0.330003
objective_accelerations=0.043005
objective_balance=0.001416
objective_effort=0.031639
objective_height=0.252314
objective_ligament=0.001630
solver_duration=872.303253
status=Solve_Succeeded
success=true
DataType=double
version=3
OpenSimVersion=4.5
endheader
time	/jointset/ground_pelvis/pelvis_tilt/value	/jointset/ground_pelvis/pelvis_tx/value	/jointset/ground_pelvis/pelvis_ty/value	/jointset/hip_r/hip_flexion_r/value	/jointset/hip_r/hip_adduction_r/value	/jointset/hip_r/hip_rotation_r/value	/jointset/back/lumbar_extension/value	/jointset/patellofemoral_r/patellar_flexion_r/value	/jointset/knee_r/knee_flexion_r/value	/jointset/knee_r/knee_adduction_r/value	/jointset/knee_r/knee_rotation_r/value	/jointset/ankle_r/ankle_angle_r/value	/jointset/subtalar_r/subtalar_angle_r/value	/jointset/ground_pelvis/pelvis_tilt/speed	/jointset/ground_pelvis/pelvis_tx/speed	/jointset/ground_pelvis/pelvis_ty/speed	/jointset/hip_r/hip_flexion_r/speed	/jointset/hip_r/hip_adduction_r/speed	/jointset/hip_r/hip_rotation_r/speed	/jointset/back/lumbar_extension/speed	/jointset/patellofemoral_r/patellar_flexion_r/speed	/jointset/knee_r/knee_flexion_r/speed	/jointset/knee_r/knee_adduction_r/speed	/jointset/knee_r/knee_rotation_r/speed	/jointset/ankle_r/ankle_angle_r/speed	/jointset/subtalar_r/subtalar_angle_r/speed	/forceset/tau_hip_flexion_r	/forceset/tau_hip_adduction_r	/forceset/tau_hip_rotation_r	/forceset/tau_knee_flexion_r	/forceset/tau_ankle_angle_r	/forceset/tau_subtalar_angle_r	/forceset/tau_lumbar_extension	lambda_cid13_p0	lambda_cid14_p0	lambda_cid14_p1	lambda_cid14_p2	lambda_cid14_p3	lambda_cid14_p4	lambda_cid14_p5	/jointset/ground_pelvis/pelvis_tilt/accel	/jointset/ground_pelvis/pelvis_tx/accel	/jointset/ground_pelvis/pelvis_ty/accel	/jointset/hip_r/hip_flexion_r/accel	/jointset/hip_r/hip_adduction_r/accel	/jointset/hip_r/hip_rotation_r/accel	/jointset/back/lumbar_extension/accel	/jointset/patellofemoral_r/patellar_flexion_r/accel	/jointset/knee_r/knee_flexion_r/accel	/jointset/knee_r/knee_adduction_r/accel	/jointset/knee_r/knee_rotation_r/accel	/jointset/ankle_r/ankle_angle_r/accel	/jointset/subtalar_r/subtalar_angle_r/accel	gamma_cid13_p0	gamma_cid14_p0	gamma_cid14_p1	gamma_cid14_p2	gamma_cid14_p3	gamma_cid14_p4	gamma_cid14_p5
0.5	-0.2171672407500035	0.01488632846150908	0.7751981255914484	1.049479472725534	-0.2437785022101097	-0.05294588274901754	-0.661754158441535	1.053310808616416	1.053310808616425	0.0174398132206844	0.1745253461346706	0.3050065079618152	0.1089290967381348	-0.5350035566715039	-0.2270462547190333	-0.622879410335775	2.28754756556374	-0.001403952646838488	0.3940738609674658	-0.7226685153877186	2.183301083037541	2.183301083037533	-0.3178246330451801	8.851275785569815e-05	0.5387705235810211	0.1875572202788035	-0.2424945176814424	0.01594703523356414	0.03008398780559951	-0.2802391415346138	-0.01179090166252003	-0.01079066020325159	0.2670835136919202	-3.832646741905395	-46.46871465841264	-12.1911167946644	1.644089335876654	-5.012756206500665	-637.4695485941692	51.73678079901372	0.5559230135984283	0.7296514807881135	-0.5120496304039615	-1.504712116576211	0.005758034133346702	-0.4147220866217495	2.065824071539256	-1.600574372872496	-1.600574372872498	0.4691129756480016	-0.06447740748191857	-0.7668404164574476	-0.07792380854926592	3.664316738550128e-09	1.82951140205796e-07	3.395393467780718e-06	2.040769641315526e-06	-5.114112048740122e-07	-6.740867224444465e-08	2.483542799565001e-06
0.51	-0.2224882048645489	0.01265251267878573	0.7689452044883286	1.072276127161747	-0.2437926398514761	-0.04903033791290715	-0.6688772731015893	1.075060373031557	1.075060373031565	0.01428251662916102	0.1745262204138844	0.3103547341275057	0.1107997916289171	-0.5290982510201826	-0.2197021758930003	-0.6275634938913993	2.271482588450382	-0.00142482580338565	0.3890257040012974	-0.7018811100232919	2.166321533804044	2.16632153380404	-0.3136123913606164	8.247310252721168e-05	0.5307856090599296	0.1865397910542835	-0.2504950044467558	0.01722804090290264	0.03000246544132444	-0.2855734696868957	-0.01303748909409364	-0.0105106930449114	0.2741648320086478	-3.101867694432467	-47.26861731279467	-12.35569589576221	1.837221229385889	-4.932769292217346	-643.7171071761439	51.84204842027515	0.6215048409333762	0.7388943809772704	-0.4254038072566893	-1.70247728442095	-0.005745409361949763	-0.5513186385941277	2.096194758885384	-1.79018631472921	-1.790186314728482	0.4010433858827678	0.03125543190458647	-0.827795370798561	-0.1191883991281032	6.213252349789493e-09	1.756536433065264e-07	3.246387846148722e-06	1.934355518059166e-06	-4.943440052502941e-07	-6.695561953268085e-08	2.45587287668709e-06
0.52	-0.2277473818225742	0.01049255934381599	0.7626496793318295	1.094903114471686	-0.2438069333081685	-0.04516556587385423	-0.6757903145100014	1.096631433731138	1.096631433731141	0.01116809517870687	0.1745270188318324	0.3156204154678119	0.1126592050435097	-0.5226461253674853	-0.2122737651683105	-0.6314002210116291	2.253614140308813	-0.001435115712466028	0.3839193015559416	-0.680653865059225	2.147600339924911	2.147600339924912	-0.3092496048351674	7.33405057146849e-05	0.5222615585042947	0.1853009250407743	-0.2584954912120683	0.01850904657225176	0.02992094307698899	-0.2909077978391814	-0.01428407652566429	-0.01023072588655255	0.2812461503253751	-2.450333256406666	-48.06539393341507	-12.51474277877176	2.02377960569506	-4.876708524399837	-649.9216910441515	51.95250848292163	0.6652870138736563	0.7465178605194572	-0.3425783433250466	-1.865406322218152	0.007874683626691499	-0.426371182459201	2.15379199146731	-1.948903301999522	-1.948903301999521	0.4992219438250045	-0.06509599577873114	-0.8746676233661618	-0.1222111663471102	6.764337961080196e-09	1.675398970829174e-07	3.09881706659783e-06	1.819206529030575e-06	-4.769322276919456e-07	-6.536449666760941e-08	2.415463635165258e-06
0.53	-0.2329394184774599	0.008407231857173529	0.7563200390791565	1.117342636634175	-0.2438213036084688	-0.04135190867229464	-0.6824889811827299	1.118006792736986	1.118006792736989	0.008098161479528231	0.1745275466802943	0.3207982609150137	0.1145050731253221	-0.5156750789972905	-0.204784441019919	-0.6343832792474261	2.234000276966845	-0.001437415976133857	0.3787842195153444	-0.6590230715888954	2.127194874392301	2.127194874392302	-0.3047351281189102	3.650731797636352e-05	0.5132283797251428	0.1838362394569469	-0.2663483575143035	0.01971132146756008	0.02970185253034145	-0.2963730679375426	-0.01556318190220888	-0.009986190957965671	0.2881459494744777	-1.877219615737625	-48.88245765196197	-12.69159685608186	2.211880351054517	-4.742535076920763	-656.1857377979532	52.03929560021988	0.7259485181745526	0.7511398056725979	-0.2544999281311446	-2.05285803308605	-0.003664615376146975	-0.5613184202657177	2.176182709466128	-2.127857617540135	-2.127857617540211	0.4282272591003988	0.02812201879232811	-0.9296180067276609	-0.1633806048588047	7.351419873787391e-09	1.592723381573256e-07	2.945800854606428e-06	1.703474529251266e-06	-4.58342943466287e-07	-6.419949417878134e-08	2.364122198268907e-06
0.54	-0.2380591576547273	0.006396997634749718	0.7499649021712407	1.139577323824665	-0.2438355733582063	-0.03759045063222208	-0.6889696479838253	1.139169799199781	1.13916979919978	0.005073505892248197	0.1745279259966867	0.3258833795741156	0.116335337681205	-0.5081866298438097	-0.1972551123245807	-0.6364995520601918	2.212647145908878	-0.001415005600311319	0.3734794692585199	-0.6370538907325523	2.105129831313755	2.105129831313755	-0.3001939824596831	4.363409278643893e-05	0.5037162008844717	0.1821802198547895	-0.2742012238165386	0.02091359636287774	0.02948276198363063	-0.3018383380359083	-0.01684228727875086	-0.009741656029361946	0.2950457486235797	-1.382050754424121	-49.69754506647533	-12.8627628361857	2.392974464213013	-4.633230316565276	-662.4264721032445	52.13669504034075	0.7687675705308845	0.7545187699088127	-0.1692212587187648	-2.213259865417947	0.0128168115247531	-0.4603048257046576	2.221469468670009	-2.28081881118666	-2.280818811186661	0.5045557324189789	-0.0563040032690561	-0.9704676356700476	-0.1604779700131255	7.97832748167879e-09	1.508346034763486e-07	2.786759908851056e-06	1.587097496300951e-06	-4.384508859065831e-07	-6.350594402111612e-08	2.300685566490108e-06
0.55	-0.243101574601134	0.004462186541073091	0.7435929457483548	1.161590008984701	-0.2438495394507039	-0.03388245874072543	-0.695229037471481	1.160104037540859	1.160104037540864	0.002094723700462675	0.1745283491803429	0.3308710648949295	0.118148001445611	-0.500218755193388	-0.1897062109117917	-0.6377446428183958	2.189609768561715	-0.001377402382462535	0.368090452997401	-0.6147856397290967	2.081452102520625	2.081452102520625	-0.2955584057197704	4.751632190625939e-05	0.4937503373758199	0.1803156013268164	-0.2817904853674538	0.02194210069297988	0.02914880138639887	-0.3075021499103397	-0.01801044864501023	-0.009517793345610516	0.3016718090792038	-0.9646337587466035	-50.48065012813401	-13.03479155646904	2.571330950344183	-4.48296611524919	-668.6534550192931	52.25089988588358	0.8225120380376888	0.7551246316387336	-0.0801021551142469	-2.390976354689387	-0.0003197260844691474	-0.5825264042389766	2.235257976615581	-2.451111734638205	-2.45111173463823	0.4439787481504108	0.03011918217329526	-1.020315192066543	-0.2043877267471262	-3.326601780940398e-08	9.377119885698077e-08	2.387456388503053e-06	9.99604993737517e-07	-3.582053311229291e-07	-9.035954723535133e-08	1.904330420156702e-06
0.5600000000000001	-0.2480619698758888	0.002602874222459327	0.7372129485837382	1.183363920434201	-0.2438630398716214	-0.03022922228742421	-0.701264593437016	1.180793526229754	1.180793526229765	-0.0008375187032218908	0.1745290881555185	0.3357569576839352	0.119941032238226	-0.4917822955133714	-0.182155357312008	-0.6381077004063258	2.164892403801596	-0.001321871284594423	0.3625283816193452	-0.5922871863083513	2.056179900877015	2.056179900877014	-0.2908860248449405	0.0001067923978578911	0.4833576945230151	0.1782536254965343	-0.2893797469183695	0.02297060502309097	0.02881484078908782	-0.3131659617847767	-0.01917861001126707	-0.009293930661842654	0.3082978695348268	-0.6249355325709193	-51.26261034060855	-13.20077082442698	2.742044004136388	-4.359813217303874	-674.8736870369374	52.38032071693598	0.862484576449871	0.7549092073077271	0.007185375336018228	-2.549257348009301	0.01640238752860575	-0.4949158490920457	2.26750995212797	-2.599713381282629	-2.599713381282626	0.5119165594024261	-0.04522523390269721	-1.055823504500697	-0.1999494304749166	-1.247558665792541e-07	-2.164300968845412e-08	1.6998377786439e-06	-1.532260723616411e-07	-2.055355796705375e-07	-1.50269734495866e-07	1.10847305635778e-06
0.5700000000000001	-0.2529357553946037	0.0008190208189894193	0.7308337205389042	1.204882427295142	-0.2438762969760712	-0.02662901893053865	-0.7070741053853726	1.201222738180725	1.201222738180722	-0.003719180986583436	0.1745297970878684	0.3405367891983275	0.1217116919123788	-0.4829022626669689	-0.1746206005487271	-0.6375905809649455	2.138539119273041	-0.001326326685122836	0.3575065971188656	-0.5695903971828811	2.029414462249528	2.029414462249528	-0.285421324310541	3.956579030573274e-05	0.4725500802819242	0.1758461716184495	-0.2967394686088801	0.0238490333345505	0.02840705255138367	-0.3188634276688901	-0.02038388588568592	-0.009103342361752078	0.3146642691825042	-0.3630070504344882	-52.05563763816095	-13.38095435820057	2.912525156702291	-4.156156784000805	-680.9902983930023	52.47979045569656	0.9116318484120322	0.7519435004091128	0.09603753620189732	-2.71885611659974	-0.008442234688587499	-0.5069006462601229	2.274484319781583	-2.752127862088002	-2.752127862087969	0.5677155304244821	0.01309754598131387	-1.10205729363101	-0.2658529456033404	-1.811821022087511e-07	-9.379392464252239e-08	1.21401068021233e-06	-8.842225420859988e-07	-1.047645276121016e-07	-1.807729442896519e-07	5.485524905993385e-07
